<svg xmlns="http://www.w3.org/2000/svg" data-name="Layer 1" viewBox="0 0 512 512"><path fill="#a4aed3" d="M365.61874,360.62737v12.37012H298.16879V241.54729l14.90992-1.95019,28.43994-3.71973v98.04a13.00948,13.00948,0,0,0,9.2,12.42969l5.59009,1.71044A13.14706,13.14706,0,0,1,365.61874,360.62737Z"/><path fill="#7685a5" d="M328.92847,262.65717a12.95134,12.95134,0,0,0,12.59034,2.94825v-29.728l-28.43995,3.71972-7.71093,1.00831Z"/><path fill="#a4aed3" d="M304.59994,150.29515l-1.90479,72.47751L328.933,247.32861a12.97281,12.97281,0,0,0,19.48425-2.02081l18.85561-26.87467a55.07069,55.07069,0,0,0,8.646-43.71848l-11.79438-52.4195Z"/><path fill="#a4aed3" d="M367.26865,218.76751l-18.84986,26.86962a12.97627,12.97627,0,0,1-19.49023,2.02l-26.23-24.5498,1.90014-72.48,50.52-23.75977,9.01-4.24023,3.79981,16.87988,7.99023,35.54A55.04033,55.04033,0,0,1,367.26865,218.76751Z"/><path fill="#a4aed3" d="M416.02866,101.88713a14.77248,14.77248,0,0,1-1.62012,2.28028l-18.84985,22.02978a15.14614,15.14614,0,0,1-19.13013,3.25l-12.29981-7.1499h-.01l-9.23,4.33984-50.29,23.66016L293.16879,98.37737l16.41587-59.946,35.194-10.59408a21.71747,21.71747,0,0,1,22.99,6.98l8.96,10.87988a17.57356,17.57356,0,0,0,3.27,3.07032l.05.02a9.48246,9.48246,0,0,0,.92993.62988,17.89321,17.89321,0,0,0,5.14013,2.20019c.30982.07959.61988.14991.94.21a2.33067,2.33067,0,0,0,.25.04c.34008.06983.68994.11963,1.04.15967l3.15992.37012a17.72715,17.72715,0,0,1,15.62011,16.37012l.6399,9.10009,5.74,5.63965A15.15859,15.15859,0,0,1,416.02866,101.88713Z"/><path fill="#596381" d="M364.11874,122.29729h.01l12.29981,7.1499a15.14614,15.14614,0,0,0,19.13013-3.25l18.84985-22.02978a14.77248,14.77248,0,0,0,1.62012-2.28028,15.00161,15.00161,0,0,0-2.52-3.25976l-5.74-5.62988-.6399-9.1001a17.71871,17.71871,0,0,0-15.62011-16.37012l-3.15992-.37012a17.78516,17.78516,0,0,1-8.3-3.25l-.05-.00976-2.39991,1.52978a33.75939,33.75939,0,0,0-11.46,12.25l-15.8,28.87012-.47.8501a14.05711,14.05711,0,0,0,1.83985,16.1001c1.06006,1.0498,2.12012,2.08984,3.18017,3.13964l.23.23047c4.27,4.21,8.62809,8.50705,12.89811,12.72677l-3.77638-16.7839Z"/><path fill="#a4aed3" d="M416.02866,101.88713a14.77248,14.77248,0,0,1-1.62012,2.28028l-18.84985,22.02978a15.14614,15.14614,0,0,1-19.13013,3.25l-12.29981-7.1499h-.01L351.70859,108.3676a14.69187,14.69187,0,0,1-1.36988-1.82031,14.047,14.047,0,0,1-.47-14.27978l16.27-29.72022a33.75551,33.75551,0,0,1,11.46-12.25l2.39991-1.52978.05.02q.45006.32958.92993.62988a17.797,17.797,0,0,0,2.99,1.50976,16.29866,16.29866,0,0,0,2.15014.69043c.30982.07959.61988.14991.94.21a2.33067,2.33067,0,0,0,.25.04c.34985.06983.68994.11963,1.04.15967l3.15992.37012a17.72715,17.72715,0,0,1,15.62011,16.37012l.6399,9.10009,5.74,5.63965A15.15859,15.15859,0,0,1,416.02866,101.88713Z"/><path fill="#596381" d="M407.27146,112.51331l-17.30875-16.4254a6.42365,6.42365,0,0,0-8.76314-.075l-5.69082,5.2183a6.42364,6.42364,0,0,0,.41758,9.82048l19.63529,15.14853Z"/><path fill="#a4aed3" d="M146.38126,360.62737v12.37012h67.45V241.54729l-14.90992-1.95019-28.43994-3.71973v98.04a13.00948,13.00948,0,0,1-9.2,12.42969l-5.59009,1.71044A13.14706,13.14706,0,0,0,146.38126,360.62737Z"/><path fill="#a4aed3" d="M207.40006,150.29515l1.90479,72.47751L183.067,247.32861a12.97281,12.97281,0,0,1-19.48425-2.02081l-18.85561-26.87467a55.07069,55.07069,0,0,1-8.646-43.71848l11.79438-52.4195Z"/><path fill="#7685a5" d="M198.92115,239.59711l-28.43994-3.71972v29.728a12.95133,12.95133,0,0,0,12.59033-2.94825l23.56055-22.05175Z"/><path fill="#a4aed3" d="M144.73135,218.76751l18.84986,26.86962a12.98182,12.98182,0,0,0,16.89558,3.91077c.91732-.50791,1.78958-16.1374,2.59465-16.89075l26.23-9.5498-1.90014-72.48-50.52-23.75977-9.01-4.24023-3.79981,16.87988-7.99023,35.54A55.04033,55.04033,0,0,0,144.73135,218.76751Z"/><path fill="#a4aed3" d="M95.97134,101.88713a14.77248,14.77248,0,0,0,1.62012,2.28028l18.84985,22.02978a15.14614,15.14614,0,0,0,19.13013,3.25l12.29981-7.1499h.01l9.23,4.33984,50.29,23.66016-3.57007-51.91992-3.11349-60.67962-33.49638-9.86042a21.71747,21.71747,0,0,0-22.99,6.98l-8.96,10.87988a17.57356,17.57356,0,0,1-3.27,3.07032l-.05.02a9.48246,9.48246,0,0,1-.92993.62988,17.89321,17.89321,0,0,1-5.14013,2.20019c-.30982.07959-.61988.14991-.93995.21a2.33067,2.33067,0,0,1-.25.04c-.34008.06983-.68994.11963-1.04.15967l-3.15992.37012a17.72715,17.72715,0,0,0-15.62011,16.37012l-.6399,9.10009-5.74,5.63965A15.15859,15.15859,0,0,0,95.97134,101.88713Z"/><path fill="#596381" d="M147.88126,122.29729h-.01l-12.29981,7.1499a15.14614,15.14614,0,0,1-19.13013-3.25L97.59146,104.16741a14.77248,14.77248,0,0,1-1.62012-2.28028,15.00161,15.00161,0,0,1,2.52-3.25976l5.74-5.62988.6399-9.1001a17.71871,17.71871,0,0,1,15.62011-16.37012l3.15992-.37012a17.78516,17.78516,0,0,0,8.3-3.25l.05-.00976,2.39991,1.52978a33.75939,33.75939,0,0,1,11.46,12.25l15.80005,28.87012.47.8501a14.05711,14.05711,0,0,1-1.83985,16.1001c-1.06006,1.0498-2.12012,2.08984-3.18017,3.13964l-.23.23047c-4.27,4.21-8.62809,8.50705-12.89811,12.72677l3.77638-16.7839Z"/><path fill="#a4aed3" d="M95.97134,101.88713a14.77248,14.77248,0,0,0,1.62012,2.28028l18.84985,22.02978a15.14614,15.14614,0,0,0,19.13013,3.25l12.29981-7.1499h.01l12.41015-13.92969a14.69187,14.69187,0,0,0,1.36988-1.82031,14.047,14.047,0,0,0,.47-14.27978l-16.27-29.72022a33.75551,33.75551,0,0,0-11.46-12.25l-2.39991-1.52978-.05.02q-.45006.32958-.92993.62988a17.797,17.797,0,0,1-2.99,1.50976,16.29866,16.29866,0,0,1-2.15014.69043c-.30982.07959-.61988.14991-.93995.21a2.33067,2.33067,0,0,1-.25.04c-.34985.06983-.68994.11963-1.04.15967l-3.15992.37012a17.72715,17.72715,0,0,0-15.62011,16.37012l-.6399,9.10009-5.74,5.63965A15.15859,15.15859,0,0,0,95.97134,101.88713Z"/><path fill="#596381" d="M104.72854,112.51331l17.30875-16.4254a6.42365,6.42365,0,0,1,8.76314-.075l5.69082,5.2183a6.42364,6.42364,0,0,1-.41758,9.82048l-19.63529,15.14853Z"/><path fill="#7685a5" d="M329.48789 373H282.70983l-2.40652-5.60062a13.2936 13.2936 0 0 1 2.05655-13.82421l5.00421-5.92682a13.29362 13.29362 0 0 0 3.10523-9.48484l-7.75947-113.24546 46.77806-7-7.805 120.4913a13.29356 13.29356 0 0 0 2.86832 9.14255l5.12793 6.43679a13.29357 13.29357 0 0 1 2.07088 12.8941zM229.68734 373H182.90928l-2.40651-5.60062a13.29361 13.29361 0 0 1 2.05654-13.82421l5.00421-5.92682a13.29359 13.29359 0 0 0 3.10524-9.48484l-7.75948-113.24546 46.77806-7-7.805 120.4913a13.29356 13.29356 0 0 0 2.86832 9.14255l5.12793 6.43679a13.2936 13.2936 0 0 1 2.07088 12.8941z"/><path fill="#a4aed3" d="M316.74863,366.88713l-2.26,6.11036h-46.78l-2.40991-5.6001a13.29836,13.29836,0,0,1,2.06-13.81983l5.01-5.93017a13.30427,13.30427,0,0,0,3.09986-9.48l-3.65991-53.4502-4.1001-59.7998,46.78-7-1.40991,21.67969-.44075,6.8155L297.03854,255.682l14.19971,6.05331-4.55969,76.67187a13.29261,13.29261,0,0,0,2.87012,9.14014l5.12988,6.43994A13.285,13.285,0,0,1,316.74863,366.88713Z"/><polygon fill="#7685a5" points="298.138 267.425 311.238 261.735 313.048 233.745 314.458 212.065 267.678 219.065 271.778 278.865 298.138 267.425"/><path fill="#596381" d="M331.33228,249.103h0a31.4149,31.4149,0,0,1-11.29306,8.64684l-8.79935,3.98353,1.81006-27.99024C314.36,235.46333,331.33228,249.103,331.33228,249.103Z"/><path fill="#a4aed3" d="M246.94858,366.88713l-2.25977,6.11036H197.90854l-2.40991-5.6001a13.29837,13.29837,0,0,1,2.06006-13.81983l5-5.93017a13.26836,13.26836,0,0,0,3.1101-9.48l-4.86047-76.38233,14.29754-4.85106-15.70113-10.23986-.48594-7.09706-1.01025-14.67969,46.78027-7-4.33008,66.87012-3.48,53.61962a13.29361,13.29361,0,0,0,2.86988,9.14014l5.13012,6.43994A13.3105,13.3105,0,0,1,246.94858,366.88713Z"/><polygon fill="#7685a5" points="200.808 261.785 213.798 267.425 240.328 278.935 244.658 212.065 197.878 219.065 198.888 233.745 200.808 261.785"/><path fill="#596381" d="M200.81019,261.78315l-.11036-.0498c-5.12646-2.35352-20.223-12.18545-20.223-12.18545L184.61,244.373s12.97022-8.90966,14.27979-10.62988Z"/><rect width="284" height="104" x="113.999" y="373" fill="#7685a5" rx="25.134"/><path fill="#a4aed3" d="M141.99913,477h228a0,0,0,0,1,0,0v7a14,14,0,0,1-14,14h-200a14,14,0,0,1-14-14v-7A0,0,0,0,1,141.99913,477Z"/><circle cx="255.992" cy="424.651" r="48.721" fill="#a4aed3"/><circle cx="255.992" cy="425" r="10.306" fill="#a4aed3"/><path fill="#7685a5" d="M222.40113 150.62739l-24.804-43.28164L172.62574 167.3686a54.30532 54.30532 0 0 0-2.958 32.13916l9.92237 46.56006q.23291.75732.44238 1.56054c.168.647.31006 1.28174.4375 1.90723a12.9862 12.9862 0 0 0 2.60156-1.87842l24.36426-22.80371q.92871-1.03491 1.85693-2.06933zM302.70679 222.78852l.77784 1.05469 25.44384 23.814a13.03677 13.03677 0 0 0 2.37159 1.75977c.00927-.105.02978-.20654.03222-.314a12.72267 12.72267 0 0 0 1.07324-3.04882l9.91309-46.855a54.30017 54.30017 0 0 0-2.98877-32.09473l-24.26724-57.6821-10.46372 11.20505z"/><path fill="#7685a5" d="M327.82545 72.52192V40.16254a40.23127 40.23127 0 0 0-.62891-7.03271l-17.61182 5.30176-16.416 59.9458 7.415 33.68115A79.188 79.188 0 0 0 327.82545 72.52192zM203.83131 98.37739L200.71754 37.6977 184.822 33.0185a40.203 40.203 0 0 0-.64893 7.144V72.52192a79.20594 79.20594 0 0 0 21.602 54.12842z"/><path fill="#7685a5" d="M327.82545,72.52192a79.13831,79.13831,0,0,1-31.06739,62.64844,56.38493,56.38493,0,0,1-33.93652,11.43652H249.176a56.39136,56.39136,0,0,1-33.93652-11.43652A79.13879,79.13879,0,0,1,184.1731,72.52192V40.16254Z"/><path fill="#a4aed3" d="M315.30953,245.25285l-45.29377,19.66241a35.19946,35.19946,0,0,1-28.03326,0l-45.30315-19.66648a10.964,10.964,0,0,1-6.35726-7.772l-8.52835-40.01929a46.67288,46.67288,0,0,1,2.54247-27.62427L212.49913,102h87l28.12248,67.60607a46.67275,46.67275,0,0,1,2.5689,27.58632L321.67015,237.465A10.964,10.964,0,0,1,315.30953,245.25285Z"/><path fill="#a4aed3" d="M315.30953,245.25285l-45.29377,19.66241a35.19946,35.19946,0,0,1-28.03326,0l-45.30315-19.66648a10.964,10.964,0,0,1-6.35726-7.772l-8.52835-40.01929a46.67288,46.67288,0,0,1,2.54247-27.62427L212.49913,102h87l28.12248,67.60607a46.67275,46.67275,0,0,1,2.5689,27.58632L321.67015,237.465A10.964,10.964,0,0,1,315.30953,245.25285Z"/><path fill="#7685a5" d="M299.49927,102h-87l-9.1289,21.98779a77.859,77.859,0,0,0,11.86914,11.18262A56.39136,56.39136,0,0,0,249.176,146.60688h13.64551a56.38493,56.38493,0,0,0,33.93652-11.43652,77.87446,77.87446,0,0,0,11.88184-11.19678Z"/><path fill="#a4aed3" d="M288.28472,124.0262l0,0A42.06976,42.06976,0,0,1,262.822,132.607H249.17631a42.06986,42.06986,0,0,1-25.46273-8.58073l0,0a64.70053,64.70053,0,0,1-25.54058-51.504V40.16261A26.16261,26.16261,0,0,1,224.33558,14h63.3271A26.16262,26.16262,0,0,1,313.8253,40.16261V72.52226A64.70053,64.70053,0,0,1,288.28472,124.0262Z"/><path fill="#596381" d="M239.36606,98.371a16.76489,16.76489,0,0,0,33.49829.00195,31.476,31.476,0,0,0-33.49829-.00195Z"/><path d="M225.38477,55.49609l5.499-4.29931a7.8649,7.8649,0,0,1,9.59082-.06885l1.87695,1.4248a5.23606,5.23606,0,0,1,1.30274,6.93018,8.17947,8.17947,0,0,0,.29,8.99414l3.67871,5.21631A10.25461,10.25461,0,0,0,252.5,77.41211V87.44678a16.66181,16.66181,0,0,1-10.29785,7.16113q-.47461.09228-.95313.15234a9.9663,9.9663,0,0,1-10.26172-5.5415,10.44587,10.44587,0,0,1,1.58985-12.12354,3.49979,3.49979,0,1,0-5.123-4.76953,17.47634,17.47634,0,0,0-2.69726,20.08448,17.10772,17.10772,0,0,0,11.51855,9.019,20.40092,20.40092,0,0,0,18.69922,16.44922q.55371.03076,1.09961.03076a20.54427,20.54427,0,0,0,19.87231-16.48047A16.8403,16.8403,0,0,0,287.29,92.41357a17.637,17.637,0,0,0-2.80762-20.23144,3.5,3.5,0,0,0-5.11719,4.77637,10.59809,10.59809,0,0,1,1.68653,12.28076,9.953,9.953,0,0,1-10.24121,5.52881c-.33789-.04151-.67578-.09424-1.01367-.16016A16.66133,16.66133,0,0,1,259.5,87.44678V77.41235a10.25369,10.25369,0,0,0,4.877-3.719l3.67871-5.21631a8.18026,8.18026,0,0,0,.29-8.99463,5.23633,5.23633,0,0,1,1.30176-6.92969l1.87891-1.4248a7.86353,7.86353,0,0,1,9.58984.06885l5.499,4.29931a3.49972,3.49972,0,0,0,4.31055-5.51464l-5.499-4.29932a14.8669,14.8669,0,0,0-18.13184-.13037l-1.8789,1.4248A12.2142,12.2142,0,0,0,262.377,63.14014a1.18316,1.18316,0,0,1-.042,1.30273l-3.67871,5.21631a3.25054,3.25054,0,0,1-5.3125,0L249.665,64.44287a1.18239,1.18239,0,0,1-.042-1.30225,12.21393,12.21393,0,0,0-3.04-16.16406l-1.877-1.4248a14.86971,14.86971,0,0,0-18.13281.13037l-5.499,4.29932a3.49972,3.49972,0,0,0,4.31055,5.51464ZM256,94.26758a22.812,22.812,0,0,0,12.459,7.21094c.07984.01562.1604.02343.24036.03808a13.39281,13.39281,0,0,1-13.33606,9.37256,13.53642,13.53642,0,0,1-11.845-9.40674l.02075-.00342A22.82145,22.82145,0,0,0,256,94.26758ZM170.93848,212.33643a12.01431,12.01431,0,0,0-2.57325-16.77393,3.5,3.5,0,0,0-4.14257,5.64258,5.00008,5.00008,0,0,1-5.916,8.0625,3.5,3.5,0,0,0-4.14258,5.64258,12.01083,12.01083,0,0,0,16.77442-2.57373ZM163.40234,149.54a12.12048,12.12048,0,0,0,1.78614.13232,12.00323,12.00323,0,0,0,9.61425-19.1499,3.5,3.5,0,1,0-5.623,4.16895,5.00007,5.00007,0,0,1-8.03223,5.957,3.5,3.5,0,1,0-5.62305,4.16894A11.92274,11.92274,0,0,0,163.40234,149.54ZM166.625,179.8418a12.001,12.001,0,0,0-2.41992-16.79737,3.49981,3.49981,0,1,0-4.19336,5.6045,5.00029,5.00029,0,1,1-5.99121,8.00732,3.49981,3.49981,0,1,0-4.19336,5.60449A12.01238,12.01238,0,0,0,166.625,179.8418Zm185.75879,29.42529a5.00017,5.00017,0,1,1-5.917-8.062,3.5,3.5,0,1,0-4.14258-5.64258,12.0004,12.0004,0,0,0,5.28027,21.53516,12.1502,12.1502,0,0,0,1.84571.1416,11.91088,11.91088,0,0,0,7.07421-2.32862,3.4998,3.4998,0,0,0-4.14062-5.64355ZM256,189.5a12.01343,12.01343,0,0,0,12-12,3.5,3.5,0,0,0-7,0,5,5,0,0,1-10,0,3.5,3.5,0,0,0-7,0A12.01343,12.01343,0,0,0,256,189.5Zm100.668-12.84375a5.00029,5.00029,0,0,1-5.99121-8.00732,3.49981,3.49981,0,1,0-4.19336-5.6045,11.99991,11.99991,0,1,0,14.37793,19.21631,3.49981,3.49981,0,1,0-4.19336-5.60449Zm27.375-41.64648a18.62236,18.62236,0,0,0,14.17578-6.53418l18.84961-22.0293a18.69287,18.69287,0,0,0-1.10547-25.43311L411.168,76.30225l-.54688-7.77442a21.24742,21.24742,0,0,0-18.7041-19.604l-3.16211-.37061a14.1497,14.1497,0,0,1-9.32226-5.07812l-8.96289-10.88233a25.1666,25.1666,0,0,0-26.70118-8.10351l-27.3778,8.26928A29.7164,29.7164,0,0,0,287.66309,10.5H224.33691a29.71273,29.71273,0,0,0-28.66406,22.03491L168.22461,24.4873a25.16777,25.16777,0,0,0-26.69629,8.10743l-8.96,10.87939a14.15386,14.15386,0,0,1-9.3252,5.07959l-3.16308.37012a21.24681,21.24681,0,0,0-18.70117,19.60058l-.54688,7.77784L96.04,81.01074a18.69309,18.69309,0,0,0-1.10938,25.43457l18.84864,22.02832a18.62832,18.62832,0,0,0,23.5498,4.00244l5.36572-3.11938L132.666,173.94092a58.63036,58.63036,0,0,0,9.19921,46.499l18.85059,26.88184a16.45606,16.45606,0,0,0,6.26465,5.32055v81.16773a9.59694,9.59694,0,0,1-6.83692,9.22363l-5.47558,1.6792a16.55892,16.55892,0,0,0-11.78809,15.917V369.5h-3.74609A28.6661,28.6661,0,0,0,110.5,398.13379v53.73242a28.66122,28.66122,0,0,0,28,28.61768V484A17.52,17.52,0,0,0,156,501.5H356A17.52,17.52,0,0,0,373.5,484v-3.51611a28.66122,28.66122,0,0,0,28-28.61768V398.13379A28.6661,28.6661,0,0,0,372.86621,369.5h-3.74609v-8.87012a16.5582,16.5582,0,0,0-11.78711-15.9165l-5.58985-1.71045a9.45613,9.45613,0,0,1-6.72363-9.09277V252.64209a16.45859,16.45859,0,0,0,6.26563-5.32227l18.84863-26.87793a58.63581,58.63581,0,0,0,9.20117-46.5l-10.02978-44.585,5.36377,3.11817A18.59219,18.59219,0,0,0,384.043,135.00977Zm11.02136-13.61426-16.9989-13.11475a2.923,2.923,0,0,1-.19043-4.46972l5.69043-5.21827a2.93383,2.93383,0,0,1,3.98926.03369l14.89648,14.13624ZM201.67383,40.1626A22.68881,22.68881,0,0,1,224.33691,17.5h63.32618a22.68881,22.68881,0,0,1,22.66308,22.6626V72.52246A61.54,61.54,0,0,1,286.167,121.24023a38.79316,38.79316,0,0,1-23.34375,7.8667H249.17676a38.79316,38.79316,0,0,1-23.34375-7.8667,61.54,61.54,0,0,1-24.15918-48.71777ZM306.8125,349.73047l5.12988,6.44092a9.84528,9.84528,0,0,1,1.52442,9.49609l-1.415,3.83252H270.01367l-1.49609-3.47607a9.7466,9.7466,0,0,1,1.51855-10.188l4.998-5.92774a16.69682,16.69682,0,0,0,3.92773-11.9873l-4.86059-70.95752L308.776,251.90356,303.18652,338.188A16.75677,16.75677,0,0,0,306.8125,349.73047ZM209.16211,337.9209l-5.89624-85.99561,34.73242,15.08106L233.38672,338.188a16.75672,16.75672,0,0,0,3.626,11.54248l5.12988,6.44092a9.84982,9.84982,0,0,1,1.52441,9.49609L242.252,369.5H200.21387l-1.4961-3.47656a9.74565,9.74565,0,0,1,1.51758-10.1875l4.998-5.92725A16.6923,16.6923,0,0,0,209.16211,337.9209ZM262.085,368.78369l.30835.71631H249.7135l.5199-1.4082a16.88477,16.88477,0,0,0-2.61621-16.28223l-5.13184-6.44336a9.76981,9.76981,0,0,1-2.1123-6.73l4.467-68.96191a38.70682,38.70682,0,0,0,22.42773-.031l4.7107,68.76a9.73427,9.73427,0,0,1-2.29395,6.99023l-4.99609,5.9253A16.71021,16.71021,0,0,0,262.085,368.78369Zm-9.585,7.85645v34.30493a14.3418,14.3418,0,0,0-1.93616.62207l-20.149-27.74365A48.16053,48.16053,0,0,1,252.5,376.64014Zm-7.59668,39.04516a14.56466,14.56466,0,0,0-1.18469,1.64282l-32.6322-10.604a48.71836,48.71836,0,0,1,13.67016-18.77954Zm-3.35181,8.29908c-.02356.33691-.05151.67285-.05151,1.01562s.028.67871.05151,1.01562L208.917,436.62036a48.35624,48.35624,0,0,1,0-23.24072Zm2.16712,8.6875a14.56466,14.56466,0,0,0,1.18469,1.64282l-20.14673,27.74072a48.71836,48.71836,0,0,1-13.67016-18.77954Zm6.84521,5.761a14.3418,14.3418,0,0,0,1.93616.62207v34.30493a48.16053,48.16053,0,0,1-22.08521-7.18335ZM248.5,425a7.5,7.5,0,1,1,7.5,7.5A7.5082,7.5082,0,0,1,248.5,425Zm11,14.05493a14.3418,14.3418,0,0,0,1.93616-.62207l20.14905,27.74365A48.16053,48.16053,0,0,1,259.5,473.35986Zm7.59668-4.74023a14.56466,14.56466,0,0,0,1.18469-1.64282l32.6322,10.604a48.71836,48.71836,0,0,1-13.67016,18.77954Zm3.35181-8.29908c.02356-.33691.05151-.67285.05151-1.01562s-.02795-.67871-.05151-1.01562L303.083,413.37964a48.35624,48.35624,0,0,1,0,23.24072Zm-2.16712-8.6875a14.56466,14.56466,0,0,0-1.18469-1.64282l20.14673-27.74072a48.71836,48.71836,0,0,1,13.67016,18.77954Zm-6.84521-5.761a14.3418,14.3418,0,0,0-1.93616-.62207V376.64014a48.16053,48.16053,0,0,1,22.08521,7.18335ZM268.626,261.70947a31.824,31.824,0,0,1-25.252,0l-45.30078-19.67041a7.48188,7.48188,0,0,1-4.33008-5.28857l-8.52929-40.01856a43.01541,43.01541,0,0,1,2.3623-25.56836l22.75012-55.20581a67.56157,67.56157,0,0,0,11.27039,10.85474,45.82787,45.82787,0,0,0,27.58008,9.29443h13.64648a45.82787,45.82787,0,0,0,27.58008-9.29443,67.56764,67.56764,0,0,0,11.36548-10.9707l22.61987,55.11328a42.91527,42.91527,0,0,1,2.37793,25.51074L318.24512,236.75a7.44262,7.44262,0,0,1-4.33008,5.28955ZM109.54871,112.76294l14.8966-14.136a2.9328,2.9328,0,0,1,3.98926-.03418l5.69043,5.21875a2.92336,2.92336,0,0,1-.18945,4.46924l-17,13.115Zm24.26086,13.66235a11.628,11.628,0,0,1-11.83228-.07861l16.23462-12.52393a9.92439,9.92439,0,0,0,.64356-15.17089L133.165,93.43359a9.95578,9.95578,0,0,0-13.53809.11573l-14.635,13.88818-4.74389-5.54395a11.67628,11.67628,0,0,1,.69531-15.8872l5.74023-5.63965a3.49777,3.49777,0,0,0,1.03809-2.251l.63965-9.10351A14.24133,14.24133,0,0,1,120.89746,55.876l3.1582-.36963a21.176,21.176,0,0,0,7.94178-2.58594l.52014.33154a30.3275,30.3275,0,0,1,10.26953,10.97852l16.27051,29.71924A10.57744,10.57744,0,0,1,157.6748,106.042l-12.03027,13.50342Zm32.63574,116.87549-18.85058-26.88232a51.62164,51.62164,0,0,1-8.09961-40.94043l11.58874-51.51514,11.81653-13.26318a17.59116,17.59116,0,0,0,2.29785-20.11035L148.92676,60.86768a37.37064,37.37064,0,0,0-11.2793-12.58521c.10547-.12207.22131-.23218.32422-.35718l8.959-10.87841a18.18714,18.18714,0,0,1,19.30469-5.84864l28.45435,8.34253c-.0044.20752-.01587.41333-.01587.62183V72.52246a68.4654,68.4654,0,0,0,10.82129,36.78491l-24.3877,59.18042a49.98209,49.98209,0,0,0-2.74023,29.70166l8.53027,40.022c.04273.1997.11194.3894.16284.58618l-6.38159,5.9768a9.48354,9.48354,0,0,1-14.2334-1.47363Zm-16.56543,117.3291a9.597,9.597,0,0,1,6.83692-9.22363l5.47558-1.6792a16.55892,16.55892,0,0,0,11.78809-15.917V254.31787c.07568.001.152.01172.22754.01172a16.47138,16.47138,0,0,0,11.25488-4.44482l5.09375-4.77051a14.4141,14.4141,0,0,0,4.72949,3.34619l.74732.32446,6.14526,89.61841a9.73069,9.73069,0,0,1-2.29492,6.99023l-4.99609,5.9253a16.70822,16.70822,0,0,0-2.60254,17.46484l.30835.71631H149.87988ZM139.13379,473.5A21.65855,21.65855,0,0,1,117.5,451.86621V398.13379A21.65855,21.65855,0,0,1,139.13379,376.5H229.0686a55.85388,55.85388,0,0,0-5.39575,3.42944c-.09619.05689-.19678.10157-.28906.1687-.07593.05518-.13513.1233-.20532.18311a55.71745,55.71745,0,0,0-19.93909,27.5249c-.005.01489-.01379.02735-.01868.04248-.00378.01172-.0039.02344-.00757.03516a55.34672,55.34672,0,0,0,0,34.23242c.00367.01172.00379.02344.00757.03516.00635.01928.01636.03589.023.05493a55.71766,55.71766,0,0,0,19.93482,27.51245c.07019.05981.12939.12793.20532.18311a3.47173,3.47173,0,0,0,.36743.22436A55.8263,55.8263,0,0,0,229.06738,473.5ZM366.5,484A10.5118,10.5118,0,0,1,356,494.5H156A10.5118,10.5118,0,0,1,145.5,484v-3.5h221Zm6.36621-107.5A21.65855,21.65855,0,0,1,394.5,398.13379v53.73242A21.65855,21.65855,0,0,1,372.86621,473.5H282.93262a55.8263,55.8263,0,0,0,5.31616-3.37378,3.47173,3.47173,0,0,0,.36743-.22436c.07593-.05518.13513-.1233.20532-.18311a55.718,55.718,0,0,0,19.93482-27.51245c.00659-.019.01672-.03589.02295-.05493.00378-.01172.0039-.02344.00757-.03516a55.34672,55.34672,0,0,0,0-34.23242c-.00367-.01172-.00379-.02344-.00757-.03516-.00489-.01513-.01368-.02759-.01868-.04248a55.71745,55.71745,0,0,0-19.93909-27.5249c-.07019-.05981-.12939-.12793-.20532-.18311-.09192-.06689-.19214-.11132-.28809-.168a55.86094,55.86094,0,0,0-5.397-3.43018Zm-23.16992-26.80322,5.59082,1.71045a9.59613,9.59613,0,0,1,6.833,9.22265V369.5H319.51355l.51965-1.40723a16.88492,16.88492,0,0,0-2.61621-16.2832l-5.13183-6.44336a9.76911,9.76911,0,0,1-2.11231-6.73l5.8208-89.86743.70557-.3064a14.4026,14.4026,0,0,0,4.74194-3.35058l5.09693,4.77392a16.4667,16.4667,0,0,0,11.2539,4.44385c.07556,0,.15186-.01074.22754-.01172v79.59229A16.41863,16.41863,0,0,0,349.69629,349.69678ZM372.50586,175.479a51.62713,51.62713,0,0,1-8.10156,40.94141l-18.84864,26.87793a9.48272,9.48272,0,0,1-14.23339,1.477l-6.39173-5.98657c.051-.19946.12061-.39185.16321-.59448l8.52051-40.27832a49.8814,49.8814,0,0,0-2.75586-29.63526l-24.26319-59.11792a68.45769,68.45769,0,0,0,10.731-36.64038V40.1626c0-.12451-.00793-.24732-.00952-.37158l28.46851-8.59864a18.17546,18.17546,0,0,1,19.28222,5.85254l8.96192,10.88135c.10266.12451.21826.23437.32348.35644a37.37082,37.37082,0,0,0-11.28051,12.58643L346.80176,90.59033a17.5887,17.5887,0,0,0,2.29687,20.10791l11.81751,13.26465Zm-6.15039-55.93359-12.03125-13.50488a10.575,10.575,0,0,1-1.38184-12.08985l16.26953-29.71875a30.33029,30.33029,0,0,1,10.27247-10.981l.51831-.33033a21.17293,21.17293,0,0,0,7.93969,2.58521l3.15723.37012a14.24194,14.24194,0,0,1,12.53906,13.13964l.63965,9.1001a3.49777,3.49777,0,0,0,1.03809,2.251l5.74316,5.64209a11.67606,11.67606,0,0,1,.69141,15.88574l-4.74292,5.543-14.635-13.88867a9.95679,9.95679,0,0,0-13.53809-.11524l-5.69043,5.21778a9.92407,9.92407,0,0,0,.64453,15.17138l16.234,12.52417a11.631,11.631,0,0,1-11.83459.0774Zm23.99414-38.52832A3.48886,3.48886,0,0,0,392.794,80.022l4.31738-4.21338a3.49989,3.49989,0,1,0-4.88867-5.00976l-4.31739,4.21338a3.5,3.5,0,0,0,2.44434,6.00488Zm-45.53809,68.65527a12.13035,12.13035,0,0,0,1.78614-.13232,11.92274,11.92274,0,0,0,7.87793-4.72266,3.5,3.5,0,1,0-5.62305-4.16894,5.00007,5.00007,0,1,1-8.03223-5.957,3.5,3.5,0,1,0-5.623-4.16895,12.00323,12.00323,0,0,0,9.61425,19.1499ZM243.5,202a3.50017,3.50017,0,0,0-3.5,3.5,5,5,0,0,1-10,0,3.5,3.5,0,0,0-7,0,12,12,0,0,0,24,0A3.50017,3.50017,0,0,0,243.5,202ZM233,177.5a3.5,3.5,0,0,0-7,0,5,5,0,0,1-10,0,3.5,3.5,0,0,0-7,0,12,12,0,0,0,24,0ZM264.5,230a3.50017,3.50017,0,0,0-3.5,3.5,5,5,0,0,1-10,0,3.5,3.5,0,0,0-7,0,12,12,0,0,0,24,0A3.50017,3.50017,0,0,0,264.5,230ZM119.77734,70.79883a3.49989,3.49989,0,1,0-4.88867,5.00976l4.31738,4.21338a3.49989,3.49989,0,1,0,4.88868-5.00976ZM285.5,202a3.50017,3.50017,0,0,0-3.5,3.5,5,5,0,0,1-10,0,3.5,3.5,0,0,0-7,0,12,12,0,0,0,24,0A3.50017,3.50017,0,0,0,285.5,202Zm14-28a3.50017,3.50017,0,0,0-3.5,3.5,5,5,0,0,1-10,0,3.5,3.5,0,0,0-7,0,12,12,0,0,0,24,0A3.50017,3.50017,0,0,0,299.5,174Z"/></svg>